<mxfile host="app.diagrams.net" modified="2023-12-11T03:24:11.705Z" agent="Mozilla/5.0 (Macintosh; Intel Mac OS X 10_15_7) AppleWebKit/537.36 (KHTML, like Gecko) Chrome/119.0.0.0 Safari/537.36" version="22.1.7" etag="oyriF7KJUipKSWzf2f4m" type="github">
  <diagram name="第 1 页" id="9ekAPld7Of-5lPnRc6sK">
    <mxGraphModel>
      <root>
        <mxCell id="0" />
        <mxCell id="1" parent="0" />
      </root>
    </mxGraphModel>
  </diagram>
</mxfile>
